<svg width="55" height="164" viewBox="0 0 55 164" fill="none" xmlns="http://www.w3.org/2000/svg">
<path fill-rule="evenodd" clip-rule="evenodd" d="M5.06942 1.11241C1.69595 2.88019 0.307102 5.16032 0.0577083 9.3396C-0.11576 12.24 0.0604868 13.1082 1.16004 14.7766C1.87996 15.8687 3.33586 17.3692 4.3955 18.1117C6.00659 19.2398 6.84512 19.4231 9.51585 19.2306C14.9659 18.8376 18.2374 15.2438 18.2374 9.64974C18.2374 2.24219 11.3885 -2.19812 5.06942 1.11241ZM11.8696 3.04697C15.6221 4.66282 17.1246 9.77597 14.9344 13.4772C12.8838 16.9442 8.91565 18.0043 5.65634 15.9555C0.64629 12.8078 1.32962 5.57155 6.87615 3.03097C9.0154 2.05083 9.56075 2.05256 11.8696 3.04697ZM27.6374 14.1015C25.8739 15.0428 9.16227 28.1501 6.11024 30.9848C5.38423 31.6594 4.32957 33.2392 3.76705 34.4958C2.84096 36.5635 2.74286 38.5072 2.73178 54.9336C2.71903 74.0314 2.8875 75.5295 5.37313 78.3803C6.65169 79.8465 17.6976 88.6505 17.9337 88.3918C18.0363 88.2787 18.3339 77.9108 18.5949 65.3512L19.0688 42.5162L24.888 37.7966C28.0885 35.2006 31.2625 32.9199 31.9408 32.728C32.8326 32.4761 33.9471 32.9639 35.9589 34.4861L38.7432 36.592V60.2472C38.7432 74.6499 38.9472 83.9024 39.2647 83.9024C39.5518 83.9024 42.5939 81.6394 46.025 78.8732C55.3883 71.3257 54.8923 72.9815 54.6978 49.9301C54.5493 32.3985 54.46 30.9077 53.4298 28.7841C52.6395 27.1551 50.176 24.739 44.8478 20.3684C40.7373 16.9962 36.6472 13.9764 35.7593 13.6571C33.292 12.7706 29.7683 12.9637 27.6374 14.1015ZM35.4396 16.3787C38.7332 18.126 50.3683 27.9627 51.3687 29.8459C52.2011 31.4138 52.3424 33.9064 52.4876 49.6319C52.6843 70.9013 52.8694 70.1577 45.9479 75.8226L41.7914 79.2245L41.5142 57.7169C41.3618 45.8879 41.0321 35.8826 40.781 35.4828C40.5305 35.083 38.9178 33.6842 37.197 32.3745C32.5654 28.8481 31.8771 29.0097 23.6094 35.5651C19.5022 38.8208 16.5754 41.5589 16.3736 42.3335C16.188 43.0491 16.0323 52.5661 16.0284 63.4829C16.0239 74.3998 15.8643 83.3312 15.6726 83.3312C14.8302 83.3312 7.58998 77.3407 6.46105 75.7095C5.24068 73.9463 5.20964 73.519 5.04559 56.0651C4.84164 34.3142 4.65267 35.0699 11.6618 29.6049C14.2117 27.6166 18.667 24.0542 21.5627 21.6884C29.5976 15.1227 31.6155 14.3511 35.4396 16.3787ZM26.1915 61.108C24.096 61.734 21.0207 65.1667 20.9769 66.9299C20.9597 67.6256 20.9015 77.7074 20.8483 89.3337C20.7552 109.48 20.8023 110.563 21.8492 112.402C24.8591 117.687 32.7688 117.7 35.5138 112.426C36.4443 110.637 36.5264 108.698 36.5241 88.4809C36.5225 67.4274 36.4743 66.4005 35.4046 64.5921C34.759 63.5012 33.2959 62.2389 31.9425 61.606C29.3577 60.3968 28.7508 60.3443 26.1915 61.108ZM31.8932 64.174C34.2391 65.8676 34.3572 67.171 34.1909 89.4839L34.0324 110.723L32.505 112.296C30.286 114.582 26.9308 114.433 24.7799 111.951L23.2253 110.158V88.4187V66.6792L24.8453 65.0097C26.688 63.1105 29.8936 62.7307 31.8932 64.174ZM38.7432 111.576V134.68L32.6502 139.564C29.2995 142.25 26.0795 144.447 25.4954 144.447C24.9112 144.447 23.2037 143.446 21.7013 142.221L18.9696 139.996L18.6359 117.314C18.4525 104.839 18.1698 94.4948 18.0074 94.3275C17.6511 93.9602 9.94204 99.797 6.9676 102.686C2.70795 106.824 2.71958 106.757 2.71958 127.021C2.71958 145.984 2.89249 147.505 5.37313 150.347C7.13441 152.364 19.894 162.209 21.8265 163.041C24.4285 164.161 28.1301 164.08 30.4517 162.851C33.0116 161.495 50.9641 146.744 52.4954 144.738C54.6656 141.894 54.8807 139.546 54.7055 120.572C54.5481 103.575 54.4689 102.343 53.4109 100.466C52.2454 98.3988 40.6863 88.4718 39.4448 88.4718C38.8906 88.4718 38.7432 93.321 38.7432 111.576ZM46.6374 96.8823C52.563 101.728 52.3213 100.663 52.3213 121.885C52.3213 139.191 52.262 140.268 51.2024 142.126C49.7598 144.656 29.9291 160.782 27.6158 161.306C24.3798 162.039 22.532 161.113 14.5741 154.769C8.16359 149.658 6.59074 148.113 5.84533 146.194C5.07443 144.208 4.93643 141.28 4.93754 126.872C4.93809 106.816 4.71086 107.695 11.3098 102.223L15.7435 98.5467L16.0206 119.355C16.188 131.921 16.5211 140.55 16.8625 141.141C17.6533 142.512 23.2187 146.708 24.781 147.113C25.4943 147.297 26.621 147.176 27.2844 146.846C29.8359 145.571 40.4701 136.351 40.9789 134.972C41.2865 134.137 41.5142 124.905 41.5142 113.247C41.5142 97.1816 41.6578 93.0623 42.207 93.4004C42.5883 93.6346 44.5818 95.2019 46.6374 96.8823Z" fill="#10BBE6" stroke="#10BBE6"/>
</svg>
